<svg width="731.67" height="511.12" xmlns="http://www.w3.org/2000/svg">

 <g>
  <title>Layer 1</title>
  <polygon id="svg_2" fill="#f8a8ab" points="440.61 79.12 466.22 87.54 466.22 50.67 442.98 50.67 440.61 79.12"/>
  <circle id="svg_3" fill="#f8a8ab" r="25.52" cy="35.35" cx="463.05"/>
  <path id="svg_4" fill="#2f2e43" d="m456.55,37.35l3.52,4.27l6.36,-11.14s8.12,0.42 8.12,-5.61s7.45,-6.2 7.45,-6.2c0,0 10.55,-18.42 -11.3,-13.57c0,0 -15.16,-10.38 -22.69,-1.51c0,0 -23.11,11.64 -16.5,31.9l10.99,20.89l2.49,-4.73s-1.51,-19.85 11.56,-14.32l0,0.02z"/>
  <rect id="svg_5" fill="#f8a8ab" height="29.71" width="20.94" y="461.78" x="432.93"/>
  <path id="svg_6" fill="#2f2e43" d="m451.55,508.51c-3.58,0.32 -21.5,1.74 -22.4,-2.37c-0.82,-3.77 0.39,-7.71 0.56,-8.25c1.72,-17.14 2.36,-17.33 2.75,-17.44c0.61,-0.18 2.39,0.67 5.28,2.53l0.18,0.12l0.04,0.21c0.05,0.27 1.33,6.56 7.4,5.59c4.16,-0.66 5.51,-1.58 5.94,-2.03c-0.35,-0.16 -0.79,-0.44 -1.1,-0.92c-0.45,-0.7 -0.53,-1.6 -0.23,-2.68c0.78,-2.85 3.12,-7.06 3.22,-7.23l0.27,-0.48l23.8,16.06l14.7,4.2c1.11,0.32 2,1.11 2.45,2.17l0,0c0.62,1.48 0.24,3.2 -0.96,4.28c-2.67,2.4 -7.97,6.51 -13.54,7.02c-1.48,0.14 -3.44,0.19 -5.64,0.19c-9.19,0 -22.61,-0.95 -22.71,-0.97l0,0l-0.01,0z"/>
  <path id="svg_7" fill="#2f2e43" d="m480.61,205.64l-54.93,-2.81s-8.42,31.92 2.22,65.18l1.28,200.29l31.04,0l29.26,-206.61l-8.87,-56.05l0,0z"/>
  <path id="svg_8" fill="#e2e3e4" d="m471.35,72.03l-30.15,-16s-32.49,47.48 -28,73.2c4.5,25.72 12.48,73.6 12.48,73.6l66.51,2.81l-11.61,-94.29l-9.23,-39.32s0,0 0,0z"/>
  <rect id="svg_9" fill="#f8a8ab" height="29.71" width="20.94" y="461.78" x="447.83"/>
  <path id="svg_10" fill="#2f2e43" d="m466.45,508.51c-3.58,0.32 -21.5,1.74 -22.4,-2.37c-0.82,-3.77 0.39,-7.71 0.56,-8.25c1.72,-17.14 2.36,-17.33 2.75,-17.44c0.61,-0.18 2.39,0.67 5.28,2.53l0.18,0.12l0.04,0.21c0.05,0.27 1.33,6.56 7.4,5.59c4.16,-0.66 5.51,-1.58 5.94,-2.03c-0.35,-0.16 -0.79,-0.44 -1.1,-0.92c-0.45,-0.7 -0.53,-1.6 -0.23,-2.68c0.78,-2.85 3.12,-7.06 3.22,-7.23l0.27,-0.48l23.8,16.06l14.7,4.2c1.11,0.32 2,1.11 2.45,2.17l0,0c0.62,1.48 0.24,3.2 -0.96,4.28c-2.67,2.4 -7.97,6.51 -13.54,7.02c-1.48,0.14 -3.44,0.19 -5.64,0.19c-9.19,0 -22.61,-0.95 -22.71,-0.97l0,0l-0.01,0z"/>
  <path id="svg_11" fill="#2f2e43" d="m492.19,205.64l-66.51,-2.81s-8.42,31.92 2.22,65.18l12.86,200.29l31.04,0l29.26,-206.61l-8.87,-56.05l0,0z"/>
  <path id="svg_12" fill="#dfdfe0" d="m485.25,336.46c-4.65,0 -9.72,-1.14 -14.73,-2.26c-3.71,-0.83 -6.98,-1.04 -9.6,-1.2c-3.98,-0.25 -7.13,-0.45 -8.88,-2.78c-1.73,-2.3 -1.73,-6.21 0,-13.92c2.3,-10.24 7.42,-26.6 13.68,-40.06c8.09,-17.36 15.86,-25.35 23.11,-23.72c9.71,2.18 13.58,18.39 15.03,27.85c2.02,13.21 1.84,28.91 -0.44,39.07l0,0c-3.02,13.45 -9.95,17.01 -18.18,17.01l0.01,0l0,0.01zm1.77,-81.13c-5.33,0 -11.87,7.78 -18.57,22.18c-6.17,13.25 -11.21,29.36 -13.48,39.45c-1.45,6.48 -1.61,10.01 -0.53,11.46c0.92,1.22 3.33,1.38 6.66,1.58c2.73,0.17 6.13,0.38 10.07,1.27c15.66,3.51 25.45,4.79 29.32,-12.48c4.15,-18.5 0.99,-60.35 -12.32,-63.34c-0.38,-0.09 -0.77,-0.13 -1.16,-0.13l0.01,0l0,0.01z"/>
  <polygon id="svg_13" fill="#6c63ff" points="548.58 460.81 399.43 461.79 376.26 451.13 389.76 313.42 403.34 314.11 543.07 321.22 548.58 460.81"/>
  <polygon id="svg_14" opacity="0.2" isolation="isolate" fill="#272223" points="399.43 461.79 376.26 451.13 389.76 313.42 403.34 314.11 399.43 461.79"/>
  <path id="svg_15" fill="#dfdfe0" d="m487.5,311.06c-2.77,0 -5.8,-0.68 -8.78,-1.35c-2.21,-0.5 -4.16,-0.62 -5.73,-0.72c-2.37,-0.15 -4.25,-0.27 -5.29,-1.66c-1.03,-1.37 -1.03,-3.7 0,-8.3c1.37,-6.11 4.42,-15.86 8.16,-23.88c4.82,-10.35 9.46,-15.11 13.78,-14.14c5.79,1.3 8.1,10.96 8.96,16.61c1.2,7.88 1.1,17.24 -0.26,23.29l0,0c-1.8,8.02 -5.93,10.14 -10.84,10.14l0,0l0,0.01zm1.06,-48.37c-3.18,0 -7.08,4.64 -11.07,13.23c-3.68,7.9 -6.69,17.5 -8.03,23.52c-0.87,3.86 -0.96,5.97 -0.31,6.83c0.55,0.73 1.98,0.82 3.97,0.94c1.63,0.1 3.65,0.23 6,0.76c9.33,2.09 15.17,2.85 17.48,-7.44c2.47,-11.03 0.59,-35.98 -7.34,-37.76c-0.23,-0.05 -0.46,-0.08 -0.69,-0.08l-0.01,0z"/>
  <polygon id="svg_16" fill="#e2e3e4" points="525.25 385.21 436.33 385.79 422.51 379.44 430.56 297.33 438.66 297.74 521.97 301.98 525.25 385.21"/>
  <polygon id="svg_17" opacity="0.2" isolation="isolate" fill="#272223" points="436.33 385.79 422.51 379.44 430.56 297.33 438.66 297.74 436.33 385.79"/>
  <path fill="#f8a8ab" d="m492.7,255.64c1.49,7.32 -1.24,14.01 -6.08,14.94s-9.97,-4.26 -11.45,-11.58c-0.63,-2.92 -0.53,-5.94 0.29,-8.82l-5.89,-31.11l15.22,-2.41l4.19,30.92c1.89,2.36 3.16,5.12 3.72,8.06l0,0z" id="uuid-2ebd868f-c256-4818-ab73-e4d3dd12d9e3-46-177"/>
  <path id="svg_18" fill="#e2e3e4" d="m433,71.45s22.26,-2.82 24.92,3.83s33.92,164.94 33.92,164.94l-20.62,0l-38.22,-168.77s0,0 0,0z"/>
  <polygon id="svg_19" fill="#f8a8ab" points="278.34 105.33 255.98 112.68 255.98 80.5 276.27 80.5 278.34 105.33"/>
  <circle id="svg_20" fill="#f8a8ab" r="22.28" cy="67.13" cx="258.75"/>
  <path id="svg_21" fill="#2f2e43" d="m264.87,64.92c-3.73,-0.11 -6.18,-3.88 -7.63,-7.32s-2.94,-7.39 -6.4,-8.81c-2.83,-1.16 -7.82,6.69 -10.05,4.6c-2.33,-2.18 -0.06,-13.37 2.41,-15.38s5.85,-2.4 9.03,-2.55c7.76,-0.36 15.57,0.27 23.18,1.86c4.71,0.98 9.55,2.46 12.95,5.86c4.3,4.32 5.4,10.83 5.71,16.92c0.32,6.23 -0.04,12.75 -3.07,18.2c-3.03,5.45 -9.37,9.47 -15.45,8.08c-0.61,-3.3 0.01,-6.69 0.25,-10.05c0.23,-3.35 -0.01,-6.97 -2.06,-9.64s-6.42,-3.73 -8.8,-1.36"/>
  <path id="svg_22" fill="#2f2e43" d="m292.28,72.64c2.23,-1.63 4.9,-3 7.64,-2.66c2.96,0.36 5.47,2.8 6.23,5.69s-0.09,6.07 -1.93,8.43c-1.83,2.36 -4.56,3.92 -7.44,4.7c-1.67,0.45 -3.5,0.64 -5.09,-0.04c-2.34,-1.01 -3.61,-4 -2.69,-6.38"/>
  <rect id="svg_23" fill="#f8a8ab" height="29.71" width="20.94" y="463.43" x="250.02"/>
  <path id="svg_24" fill="#2f2e43" d="m229.62,511.12c-2.2,0 -4.16,-0.05 -5.64,-0.19c-5.56,-0.51 -10.87,-4.62 -13.54,-7.02c-1.2,-1.08 -1.58,-2.8 -0.96,-4.28l0,0c0.45,-1.06 1.34,-1.86 2.45,-2.17l14.7,-4.2l23.8,-16.06l0.27,0.48c0.1,0.18 2.44,4.39 3.22,7.23c0.3,1.08 0.22,1.98 -0.23,2.68c-0.31,0.48 -0.75,0.76 -1.1,0.92c0.43,0.45 1.78,1.37 5.94,2.03c6.07,0.96 7.35,-5.33 7.4,-5.59l0.04,-0.21l0.18,-0.12c2.89,-1.86 4.67,-2.71 5.28,-2.53c0.38,0.11 1.02,0.31 2.75,17.44c0.17,0.54 1.38,4.48 0.56,8.25c-0.89,4.1 -18.81,2.69 -22.4,2.37c-0.1,0.01 -13.52,0.97 -22.71,0.97l-0.01,0z"/>
  <rect id="svg_25" transform="rotate(-31.95 -192.55 243.81)" fill="#f8a8ab" height="29.71" width="20.94" y="687.17" x="126.54"/>
  <path id="svg_26" fill="#2f2e43" d="m306.98,507.05c-2.46,0 -4.72,-0.3 -6.33,-0.58c-1.58,-0.28 -2.82,-1.54 -3.08,-3.12l0,0c-0.18,-1.14 0.15,-2.29 0.93,-3.14l10.25,-11.34l11.7,-26.22l0.48,0.26c0.18,0.1 4.39,2.43 6.56,4.43c0.83,0.76 1.24,1.57 1.22,2.4c-0.01,0.58 -0.23,1.04 -0.45,1.37c0.6,0.16 2.23,0.22 6.11,-1.42c5.66,-2.39 3.42,-8.41 3.32,-8.66l-0.08,-0.2l0.09,-0.19c1.47,-3.11 2.52,-4.77 3.14,-4.94c0.39,-0.11 1.03,-0.28 11.56,13.35c0.43,0.36 3.54,3.07 4.84,6.7c1.41,3.95 -14.54,12.24 -17.75,13.86c-0.1,0.08 -16.79,12.21 -23.65,15.66c-2.72,1.37 -5.94,1.79 -8.87,1.79l0,0l0.01,-0.01z"/>
  <path id="svg_27" fill="#2f2e43" d="m286.38,214.98l-58.63,0l-5.32,54.54l23.28,201.52l29.93,0l-11.97,-116.39l48.55,105.08l26.6,-18.62l-37.91,-98.1s13.54,-85.46 2.9,-106.75s-17.43,-21.28 -17.43,-21.28l0,0z"/>
  <polygon id="svg_28" fill="#6c63ff" points="315.54 218.3 222.43 218.3 250.36 97.92 290.93 97.92 315.54 218.3"/>
  <path fill="#f8a8ab" d="m199.3,95.55c-1.49,-7.32 1.24,-14.01 6.08,-14.94s9.97,4.26 11.45,11.58c0.63,2.92 0.53,5.94 -0.29,8.82l5.89,31.11l-15.22,2.41l-4.19,-30.92c-1.89,-2.36 -3.16,-5.12 -3.72,-8.06l0,0z" id="uuid-f899ad7f-3d0f-4b30-ad3c-9c1473a48add-47-178"/>
  <path id="svg_29" fill="#6c63ff" d="m289.94,97.92l-35.78,0l-24.12,48.24l-9.1,-36.15l-19.99,2.12s4.73,70.63 25.4,68.24c20.67,-2.39 68.88,-66.02 63.58,-82.46l0.01,0l0,0.01z"/>
  <path id="svg_30" fill="#dfdfe0" d="m323.73,326.73c-2.77,0 -5.8,-0.68 -8.78,-1.35c-2.21,-0.5 -4.16,-0.62 -5.73,-0.72c-2.37,-0.15 -4.25,-0.27 -5.29,-1.66c-1.03,-1.37 -1.03,-3.7 0,-8.3c1.37,-6.11 4.42,-15.86 8.16,-23.88c4.82,-10.35 9.46,-15.11 13.78,-14.14c5.79,1.3 8.1,10.96 8.96,16.61c1.2,7.88 1.1,17.24 -0.26,23.29l0,0c-1.8,8.02 -5.93,10.14 -10.84,10.14l0,0l0,0.01zm1.06,-48.37c-3.18,0 -7.08,4.64 -11.07,13.23c-3.68,7.9 -6.69,17.5 -8.03,23.52c-0.87,3.86 -0.96,5.97 -0.31,6.83c0.55,0.73 1.98,0.82 3.97,0.94c1.63,0.1 3.65,0.23 6,0.76c9.33,2.09 15.17,2.85 17.48,-7.44c2.47,-11.03 0.59,-35.98 -7.34,-37.76c-0.23,-0.05 -0.46,-0.08 -0.69,-0.08l-0.01,0z"/>
  <polygon id="svg_31" fill="#e2e3e4" points="361.49 400.87 272.57 401.45 258.75 395.1 266.8 312.99 274.9 313.4 358.21 317.64 361.49 400.87"/>
  <polygon id="svg_32" opacity="0.2" isolation="isolate" fill="#272223" points="272.57 401.45 258.75 395.1 266.8 312.99 274.9 313.4 272.57 401.45"/>
  <path fill="#f8a8ab" d="m329.89,281.37c1.49,7.32 -1.24,14.01 -6.08,14.94s-9.97,-4.26 -11.45,-11.58c-0.63,-2.92 -0.53,-5.94 0.29,-8.82l-5.89,-31.11l15.22,-2.41l4.19,30.92c1.89,2.36 3.16,5.12 3.72,8.06l0,0z" id="uuid-aa721d86-32e3-4ace-957f-0814f6d1eb89-48-179"/>
  <path id="svg_33" fill="#6c63ff" d="m269.54,97.92s20.33,-0.86 21.39,0c5.55,4.53 38.1,168.04 38.1,168.04l-20.62,0l-38.87,-168.04s0,0 0,0z"/>
 </g>
</svg>